<?xml version="1.0" standalone="no"?>
<!DOCTYPE svg PUBLIC "-//W3C//DTD SVG 20010904//EN"
 "http://www.w3.org/TR/2001/REC-SVG-20010904/DTD/svg10.dtd">
<svg version="1.0" xmlns="http://www.w3.org/2000/svg"
 width="83.000000pt" height="96.000000pt" viewBox="0 0 83.000000 96.000000"
 preserveAspectRatio="xMidYMid meet">

<g transform="translate(0.000000,96.000000) scale(0.100000,-0.100000)"
fill="#000000" stroke="none">
<path d="M221 837 l-184 -81 6 -105 c6 -123 30 -209 89 -324 47 -89 149 -204
233 -262 l56 -39 37 19 c58 32 171 144 222 221 26 40 59 104 74 144 32 88 58
232 54 301 l-3 51 -185 79 c-102 43 -192 78 -200 78 -8 0 -98 -37 -199 -82z
m386 -35 c186 -77 179 -68 162 -204 -26 -209 -128 -386 -284 -494 l-54 -37
-50 32 c-80 52 -185 169 -224 253 -53 109 -70 180 -71 286 l-1 92 165 74 c91
41 172 72 180 70 8 -2 88 -35 177 -72z"/>
</g>
</svg>
